# xmcd CD database file
#
# Track frame offsets:
#	183
#	13505
#	21885
#	31328
#	44183
#	56783
#	65650
#	77478
#	87845
#	100448
#	109800
#	121988
#	132915
#	144488
#
# Disc length: 2046 seconds
#
# Revision: 1
# Processed by: cddbd v1.5.1PL0 Copyright (c) Steve Scherf et al.
# Submitted via: CDex 1.51
#
DISCID=c207fc0e
DTITLE=Willie Nelson - You'll always have someone and other great songs
DYEAR=1990
DGENRE=Country
TTITLE0=You'll always have someone
TTITLE1=Slow down old world
TTITLE2=I'm building heartaches
TTITLE3=Everything but you
TTITLE4=I just don't understand
TTITLE5=Why are you picking on me?
TTITLE6=Happines lives next door
TTITLE7=I feel sorry for him
TTITLE8=She's not for you
TTITLE9=One step beyond
TTITLE10=I can't find the time
TTITLE11=Go away
TTITLE12=Some other time
TTITLE13=Right from wrong
EXTD=
EXTT0=
EXTT1=
EXTT2=
EXTT3=
EXTT4=
EXTT5=
EXTT6=
EXTT7=
EXTT8=
EXTT9=
EXTT10=
EXTT11=
EXTT12=
EXTT13=
PLAYORDER=
